<?xml version="1.0" standalone="no"?>
<!DOCTYPE svg PUBLIC "-//W3C//DTD SVG 20010904//EN"
 "http://www.w3.org/TR/2001/REC-SVG-20010904/DTD/svg10.dtd">
<svg version="1.0" xmlns="http://www.w3.org/2000/svg"
 width="600.000000pt" height="600.000000pt" viewBox="0 0 600.000000 600.000000"
 preserveAspectRatio="xMidYMid meet">

<g transform="translate(0.000000,600.000000) scale(0.100000,-0.100000)"
fill="#000000" stroke="none">
<path d="M655 4238 c-2 -7 -18 -97 -36 -200 l-32 -188 -108 0 c-94 0 -108 -2
-113 -17 -2 -10 -16 -88 -31 -173 -14 -85 -28 -163 -31 -172 -5 -16 5 -18 105
-18 61 0 111 -3 111 -7 0 -3 -23 -137 -51 -297 -44 -248 -50 -304 -46 -379 10
-194 119 -310 342 -367 89 -23 302 -37 324 -22 12 9 81 352 81 405 0 14 -9 17
-57 17 -32 0 -75 5 -96 11 -54 15 -106 66 -113 109 -3 20 14 141 39 280 l43
245 151 3 152 3 5 27 c18 87 56 313 56 331 0 20 -4 21 -145 21 -131 0 -145 2
-145 18 0 9 9 68 20 131 11 63 17 129 14 148 -8 41 -46 80 -93 93 -55 15 -341
13 -346 -2z"/>
<path d="M2340 3845 c-140 -40 -257 -126 -353 -260 -41 -58 -49 -65 -44 -40
29 164 31 183 16 221 -26 68 -58 78 -251 83 -134 2 -169 0 -173 -10 -3 -8 -59
-322 -125 -699 -66 -377 -122 -695 -125 -708 l-5 -22 242 2 242 3 52 300 c30
165 63 327 75 360 42 115 126 218 218 264 63 33 167 53 249 49 39 -2 72 -3 72
-3 0 0 18 102 40 225 22 124 40 231 40 238 0 16 -109 15 -170 -3z"/>
<path d="M3992 3833 c3 -10 90 -315 193 -678 124 -435 188 -676 188 -706 -1
-81 -65 -173 -148 -210 -33 -15 -67 -19 -198 -19 -190 0 -219 -8 -247 -72 -10
-24 -32 -121 -48 -217 l-29 -173 286 4 286 3 88 31 c48 18 113 47 144 65 78
47 202 166 257 247 25 37 245 443 489 902 l444 835 -230 3 c-264 3 -311 -5
-365 -61 -24 -24 -78 -139 -208 -438 -97 -222 -179 -407 -183 -412 -4 -4 -35
174 -70 395 -36 233 -70 417 -79 437 -9 19 -30 44 -45 55 -27 20 -44 21 -279
24 -237 3 -250 2 -246 -15z"/>
<path d="M5467 2468 c-73 -43 -98 -152 -50 -217 37 -48 70 -65 128 -65 84 0
143 53 152 137 14 121 -123 207 -230 145z m163 -36 c49 -48 59 -96 34 -148
-26 -53 -66 -79 -119 -79 -53 0 -93 26 -119 79 -25 52 -15 100 34 148 33 33
44 38 85 38 41 0 52 -5 85 -38z"/>
<path d="M5500 2334 c0 -54 4 -83 10 -79 6 3 10 19 10 36 0 40 22 37 46 -6 18
-34 34 -46 34 -25 0 6 -8 22 -17 36 -16 25 -16 27 0 36 20 10 23 58 5 76 -7 7
-29 12 -50 12 l-38 0 0 -86z m75 36 c0 -20 -6 -26 -27 -28 -25 -3 -28 0 -28
28 0 28 3 31 28 28 21 -2 27 -8 27 -28z"/>
</g>
</svg>
