<svg width="40" height="24" viewBox="0 0 40 24" fill="none" xmlns="http://www.w3.org/2000/svg">
  <rect width="40" height="24" rx="4" fill="white"/>
  <path d="M16.5 8H14L11.5 16H13.5L14 14.5H16L16.5 16H18.5L16.5 8ZM14.5 13L15 11L15.5 13H14.5Z" fill="#1A1F71"/>
  <path d="M22 8L20 16H18L20 8H22Z" fill="#1A1F71"/>
  <path d="M28 8C27.5 8 27 8.2 26.5 8.5L26 10.5C26.5 10.2 27 10 27.5 10C28 10 28.5 10.2 28.5 10.8C28.5 11 28.3 11.2 28 11.5L26.5 12.5C26 13 25.5 13.5 25.5 14.5H29V13H27.5C27.8 12.8 28 12.5 28 12C28 11 27.5 10.5 27 10.5C26.5 10.5 26 10.8 26 11.5H24.5C24.5 9.5 26 8 28 8Z" fill="#1A1F71"/>
  <path d="M32 8L30 16H28L30 8H32Z" fill="#1A1F71"/>
</svg>